<svg xmlns="http://www.w3.org/2000/svg" viewBox="0 0 24 24">
    <path fill="#00FFB0" d="M18 7.647H6a.5.5 0 00-.5.5v8.154c0 1.371.825 2.55 2 3.063v2.82c0 .797.631 1.375 1.5 1.375s1.5-.578 1.5-1.375v-2.539h3v2.541c0 .797.631 1.375 1.5 1.375s1.5-.578 1.5-1.375v-2.834a3.34 3.34 0 002-3.051V8.149a.502.502 0 00-.5-.502zM6.014 6.479a.503.503 0 00.374.168h11.185a.501.501 0 00.497-.561c-.204-1.688-.914-2.988-2.03-3.859l.756-.985a.501.501 0 00-.793-.61l-.813 1.057c-.896-.452-1.967-.699-3.21-.699-1.321 0-2.459.271-3.385.781L7.72.632a.5.5 0 00-.793.61l.84 1.093c-1.032.869-1.681 2.14-1.874 3.751a.49.49 0 00.121.393zM21 7.647c-.827 0-1.5.673-1.5 1.5v4.999a1.501 1.501 0 003 0V9.147c0-.827-.673-1.5-1.5-1.5zM3 7.647c-.827 0-1.5.673-1.5 1.5v4.999a1.501 1.501 0 003 0V9.147c0-.827-.673-1.5-1.5-1.5z"/>
</svg>
