<?xml version="1.0" encoding="utf-8"?>
<!-- Generator: Adobe Illustrator 26.0.3, SVG Export Plug-In . SVG Version: 6.00 Build 0)  -->
<svg version="1.1" id="Layer_1" xmlns="http://www.w3.org/2000/svg" xmlns:xlink="http://www.w3.org/1999/xlink" x="0px" y="0px"
	 viewBox="0 0 840 207" style="enable-background:new 0 0 840 207;" xml:space="preserve">
<style type="text/css">
	.st0{fill-rule:evenodd;clip-rule:evenodd;fill:#FFFFFF;}
</style>
<g>
	<path class="st0" d="M485.4,64.5H330c-2.6,0-4.7,2.1-4.7,4.7v101.3c0,2.6,2.1,4.7,4.7,4.7h56.1v25.7h-17.4c-0.9,0-1.7,0.7-1.7,1.7
		v2c0,0.9,0.7,1.7,1.7,1.7h77.9c0.9,0,1.7-0.7,1.7-1.7v-2c0-0.9-0.7-1.7-1.7-1.7h-17.4v-25.7h56.1c2.6,0,4.7-2.1,4.7-4.7V69.1
		C490.1,66.5,488,64.5,485.4,64.5z M487.7,170.4c0,1.3-1,2.3-2.3,2.3H330c-1.3,0-2.3-1-2.3-2.3V69.1c0-1.3,1-2.3,2.3-2.3h155.4
		c1.3,0,2.3,1,2.3,2.3V170.4z"/>
	<path class="st0" d="M678.5,96.5c0-2.6-2.1-4.7-4.7-4.7H518.4c-2.6,0-4.7,2.1-4.7,4.7v99.6h-11.5v4.3c0,3.1,2.5,5.7,5.7,5.7h176.4
		c3.1,0,5.7-2.5,5.7-5.7v-4.3h-11.5V96.5z M676.2,196.1H516.1V96.5c0-1.3,1-2.3,2.3-2.3h155.4c1.3,0,2.3,1,2.3,2.3V196.1z"/>
	<path class="st0" d="M773.7,110.8H715c-1.6,0-3,1.3-3,3V204c0,1.6,1.3,3,3,3h58.8c0.8,0,1.5-0.3,2-0.8h0.1V206
		c0.5-0.5,0.8-1.2,0.8-2v-90.2C776.7,112.1,775.4,110.8,773.7,110.8z M774.8,196.2h-61v-82.5c0-0.6,0.5-1.1,1.1-1.1h58.8
		c0.6,0,1.1,0.5,1.1,1.1V196.2z"/>
	<path class="st0" d="M837.4,128.6h-38.5c-1.5,0-2.8,1.2-2.8,2.8v73.1c0,1.5,1.2,2.8,2.8,2.8h38.5c1.5,0,2.8-1.2,2.8-2.8v-73.1
		C840.2,129.9,838.9,128.6,837.4,128.6z M837.6,204.4c0,0.1-0.1,0.2-0.2,0.2h0v-6.3h-38.6v-67c0-0.1,0.1-0.2,0.2-0.2h38.5
		c0.1,0,0.2,0.1,0.2,0.2V204.4z"/>
	<path class="st0" d="M298,0H7.1C3.2,0,0,3.2,0,7.1v160.7c0,3.9,3.2,7.1,7.1,7.1h138.8V197l-61.2,3.7c-3.1,0.2-5.6,2.8-5.6,5.9h73.5
		H226c0-3.1-2.4-5.7-5.6-5.9l-61.2-3.7v-22.2H298c3.9,0,7.1-3.2,7.1-7.1V7.1C305.1,3.2,301.9,0,298,0z M303,167.8c0,2.7-2.2,5-5,5
		H7.1c-2.7,0-5-2.2-5-5V7.1c0-2.7,2.2-5,5-5H298c2.7,0,5,2.2,5,5V167.8z"/>
	<path class="st0" d="M191,77.6c-3.2-12.5-6-14.5-17.2-15.1c-2.6-0.1-6-0.1-8.1,3.4c-1,1.5-2.6,1.4-4.1,1.4h-17.2
		c-1.5,0-3.1,0.3-4.1-1.3c-2.2-3.5-5.5-3.5-8.1-3.4c-11.2,0.5-14,2.6-17.2,15.1c-1.6,6.3-4.8,18.8-6.5,25.1c-1.1,4-0.1,6.5,4,9.5
		c2.9,2.1,7.4,1.9,10.2-0.7c2.9-2.8,4.8-6.2,7.5-9.6c1.3-1.6,2.6-2.5,5.5-1.5c5.8,1.9,11.3,2.1,16.3,2.2c6,0.1,12.3-0.3,18.2-2.3
		c3-1,4.2-0.1,5.5,1.5c2.8,3.4,4.6,6.8,7.5,9.6c2.8,2.6,7.3,2.8,10.2,0.7c4.1-3,5.1-5.5,4-9.5C195,93.8,193.1,86,191,77.6z
		 M141.6,84.3c0,1.3-1.1,2.4-2.4,2.4h-4.5v4.5c0,1.3-1.1,2.4-2.4,2.4h-1.9c-1.3,0-2.4-1.1-2.4-2.4v-4.5h-4.5c-1.3,0-2.4-1.1-2.4-2.4
		v-1.9c0-1.3,1.1-2.4,2.4-2.4h4.5v-4.5c0-1.3,1.1-2.4,2.4-2.4h1.9c1.3,0,2.4,1.1,2.4,2.4V80h4.5c1.3,0,2.4,1.1,2.4,2.4V84.3z
		 M166.3,93.3c-2.5,0-4.5-2-4.5-4.5c0-2.5,2-4.5,4.5-4.5c2.5,0,4.5,2,4.5,4.5C170.8,91.3,168.8,93.3,166.3,93.3z M168.4,77.5
		c0-2.5,2-4.5,4.5-4.5c2.5,0,4.5,2,4.5,4.5c0,2.5-2,4.5-4.5,4.5C170.4,82.1,168.4,80,168.4,77.5z M179.5,93.3c-2.5,0-4.5-2-4.5-4.5
		c0-2.5,2-4.5,4.5-4.5c2.5,0,4.5,2,4.5,4.5C184,91.3,181.9,93.3,179.5,93.3z"/>
	<path class="st0" d="M435.5,112.5c-2.3-9-4.4-10.5-12.5-10.9c-1.9-0.1-4.3-0.1-5.9,2.4c-0.7,1.1-1.9,1-3,1h-12.4
		c-1.1,0-2.3,0.2-3-0.9c-1.6-2.5-4-2.5-5.9-2.4c-8.1,0.4-10.2,1.9-12.5,10.9c-1.2,4.5-3.5,13.6-4.7,18.2c-0.8,2.9-0.1,4.7,2.9,6.9
		c2.1,1.5,5.4,1.4,7.4-0.5c2.1-2,3.5-4.5,5.5-6.9c0.9-1.2,1.9-1.8,4-1.1c4.2,1.4,8.2,1.6,11.8,1.6c4.4,0.1,8.9-0.2,13.2-1.6
		c2.1-0.7,3.1-0.1,4,1.1c2,2.5,3.3,4.9,5.5,6.9c2,1.9,5.3,2,7.4,0.5c3-2.2,3.7-4,2.9-6.9C438.5,124.3,437.1,118.6,435.5,112.5z
		 M399.7,117.4c0,1-0.8,1.7-1.7,1.7h-3.3v3.3c0,1-0.8,1.7-1.7,1.7h-1.4c-1,0-1.7-0.8-1.7-1.7v-3.3h-3.3c-1,0-1.7-0.8-1.7-1.7V116
		c0-1,0.8-1.7,1.7-1.7h3.3V111c0-1,0.8-1.7,1.7-1.7h1.4c1,0,1.7,0.8,1.7,1.7v3.3h3.3c1,0,1.7,0.8,1.7,1.7V117.4z M417.7,123.9
		c-1.8,0-3.3-1.5-3.3-3.3c0-1.8,1.5-3.3,3.3-3.3c1.8,0,3.3,1.5,3.3,3.3C420.9,122.4,419.5,123.9,417.7,123.9z M419.2,112.5
		c0-1.8,1.5-3.3,3.3-3.3c1.8,0,3.3,1.5,3.3,3.3c0,1.8-1.5,3.3-3.3,3.3C420.6,115.7,419.2,114.3,419.2,112.5z M427.2,123.9
		c-1.8,0-3.3-1.5-3.3-3.3c0-1.8,1.5-3.3,3.3-3.3c1.8,0,3.3,1.5,3.3,3.3C430.4,122.4,429,123.9,427.2,123.9z"/>
	<path class="st0" d="M621,140.2c-2.1-8.2-4-9.5-11.3-9.9c-1.7-0.1-3.9-0.1-5.3,2.2c-0.6,1-1.7,0.9-2.7,0.9h-11.3
		c-1,0-2.1,0.2-2.7-0.9c-1.4-2.3-3.6-2.3-5.3-2.2c-7.4,0.4-9.2,1.7-11.3,9.9c-1,4.1-3.2,12.4-4.2,16.5c-0.7,2.6-0.1,4.3,2.6,6.3
		c1.9,1.4,4.9,1.3,6.7-0.5c1.9-1.8,3.1-4.1,5-6.3c0.9-1.1,1.7-1.7,3.6-1c3.8,1.3,7.5,1.4,10.7,1.4c4,0.1,8.1-0.2,12-1.5
		c2-0.6,2.8,0,3.6,1c1.8,2.2,3,4.5,5,6.3c1.8,1.7,4.8,1.8,6.7,0.5c2.7-2,3.3-3.6,2.6-6.3C623.7,150.9,622.4,145.7,621,140.2z
		 M588.5,144.6c0,0.9-0.7,1.6-1.6,1.6h-3v3c0,0.9-0.7,1.6-1.6,1.6h-1.2c-0.9,0-1.6-0.7-1.6-1.6v-3h-3c-0.9,0-1.6-0.7-1.6-1.6v-1.2
		c0-0.9,0.7-1.6,1.6-1.6h3v-3c0-0.9,0.7-1.6,1.6-1.6h1.2c0.9,0,1.6,0.7,1.6,1.6v3h3c0.9,0,1.6,0.7,1.6,1.6V144.6z M604.8,150.5
		c-1.6,0-3-1.3-3-3c0-1.6,1.3-3,3-3c1.6,0,3,1.3,3,3C607.7,149.2,606.4,150.5,604.8,150.5z M606.1,140.2c0-1.6,1.3-3,3-3
		c1.6,0,3,1.3,3,3c0,1.6-1.3,3-3,3C607.5,143.1,606.1,141.8,606.1,140.2z M613.4,150.5c-1.6,0-3-1.3-3-3c0-1.6,1.3-3,3-3
		c1.6,0,3,1.3,3,3C616.4,149.2,615,150.5,613.4,150.5z"/>
	<path class="st0" d="M763.6,149.7c-1.6-6.4-3.1-7.5-8.9-7.8c-1.3-0.1-3.1-0.1-4.2,1.7c-0.5,0.8-1.3,0.7-2.1,0.7h-8.9
		c-0.8,0-1.6,0.1-2.1-0.7c-1.1-1.8-2.9-1.8-4.2-1.7c-5.8,0.3-7.3,1.3-8.9,7.8c-0.8,3.2-2.5,9.7-3.3,13c-0.5,2.1-0.1,3.4,2.1,4.9
		c1.5,1.1,3.8,1,5.3-0.4c1.5-1.4,2.5-3.2,3.9-4.9c0.7-0.8,1.3-1.3,2.9-0.8c3,1,5.9,1.1,8.4,1.1c3.1,0.1,6.4-0.2,9.4-1.2
		c1.5-0.5,2.2,0,2.9,0.8c1.4,1.8,2.4,3.5,3.9,5c1.4,1.4,3.8,1.4,5.3,0.4c2.1-1.5,2.6-2.9,2.1-4.9C765.7,158.1,764.7,154,763.6,149.7
		z M738.1,153.2c0,0.7-0.6,1.2-1.2,1.2h-2.3v2.3c0,0.7-0.6,1.2-1.2,1.2h-1c-0.7,0-1.2-0.6-1.2-1.2v-2.3h-2.3c-0.7,0-1.2-0.6-1.2-1.2
		v-1c0-0.7,0.6-1.2,1.2-1.2h2.3v-2.3c0-0.7,0.6-1.2,1.2-1.2h1c0.7,0,1.2,0.6,1.2,1.2v2.3h2.3c0.7,0,1.2,0.6,1.2,1.2V153.2z
		 M750.9,157.8c-1.3,0-2.3-1-2.3-2.3c0-1.3,1-2.3,2.3-2.3c1.3,0,2.3,1,2.3,2.3C753.2,156.8,752.2,157.8,750.9,157.8z M752,149.7
		c0-1.3,1-2.3,2.3-2.3c1.3,0,2.3,1,2.3,2.3c0,1.3-1,2.3-2.3,2.3C753,152,752,150.9,752,149.7z M757.7,157.8c-1.3,0-2.3-1-2.3-2.3
		c0-1.3,1-2.3,2.3-2.3c1.3,0,2.3,1,2.3,2.3C760,156.8,759,157.8,757.7,157.8z"/>
	<path class="st0" d="M829.7,163.6c-1-3.9-1.9-4.5-5.4-4.7c-0.8,0-1.9,0-2.5,1.1c-0.3,0.5-0.8,0.4-1.3,0.4h-5.4
		c-0.5,0-1,0.1-1.3-0.4c-0.7-1.1-1.7-1.1-2.5-1.1c-3.5,0.2-4.4,0.8-5.4,4.7c-0.5,2-1.5,5.9-2,7.8c-0.3,1.2,0,2,1.3,3
		c0.9,0.7,2.3,0.6,3.2-0.2c0.9-0.9,1.5-1.9,2.4-3c0.4-0.5,0.8-0.8,1.7-0.5c1.8,0.6,3.5,0.7,5.1,0.7c1.9,0,3.9-0.1,5.7-0.7
		c0.9-0.3,1.3,0,1.7,0.5c0.9,1.1,1.4,2.1,2.4,3c0.9,0.8,2.3,0.9,3.2,0.2c1.3-0.9,1.6-1.7,1.3-3C831,168.7,830.4,166.2,829.7,163.6z
		 M814.3,165.7c0,0.4-0.3,0.7-0.7,0.7h-1.4v1.4c0,0.4-0.3,0.7-0.7,0.7h-0.6c-0.4,0-0.7-0.3-0.7-0.7v-1.4h-1.4
		c-0.4,0-0.7-0.3-0.7-0.7v-0.6c0-0.4,0.3-0.7,0.7-0.7h1.4V163c0-0.4,0.3-0.7,0.7-0.7h0.6c0.4,0,0.7,0.3,0.7,0.7v1.4h1.4
		c0.4,0,0.7,0.3,0.7,0.8V165.7z M822,168.5c-0.8,0-1.4-0.6-1.4-1.4c0-0.8,0.6-1.4,1.4-1.4c0.8,0,1.4,0.6,1.4,1.4
		C823.4,167.9,822.8,168.5,822,168.5z M824.1,165c-0.8,0-1.4-0.6-1.4-1.4c0-0.8,0.6-1.4,1.4-1.4c0.8,0,1.4,0.6,1.4,1.4
		C825.5,164.4,824.8,165,824.1,165z M826.1,168.5c-0.8,0-1.4-0.6-1.4-1.4c0-0.8,0.6-1.4,1.4-1.4c0.8,0,1.4,0.6,1.4,1.4
		C827.5,167.9,826.9,168.5,826.1,168.5z"/>
</g>
</svg>
