<svg xmlns="http://www.w3.org/2000/svg" viewBox="0 0 24 24">
    <path fill="#00FFB0" d="M1.5 11.517a.503.503 0 01-.5-.5v-5.91a.5.5 0 01.406-.491c2.996-.573 4.99-.858 8.963-1.427a.571.571 0 01.428.112c.11.096.203.23.203.375v7.135a.501.501 0 01-.49.5c-3.999.081-5.998.125-8.997.207l-.013-.001zM22.5 22.615a.497.497 0 01-.094-.008c-2.958-.564-4.93-.849-8.856-1.41l-.12-.018a.497.497 0 01-.43-.493V13.24c0-.135.055-.264.15-.356a.474.474 0 01.358-.144c4.001.082 6.003.125 9.003.205a.5.5 0 01.486.5v8.67a.49.49 0 01-.182.385.476.476 0 01-.315.115zM13.5 11.26a.5.5 0 01-.5-.5V3.317c0-.248.184-.459.43-.495l.1-.014c3.938-.564 5.914-.848 8.877-1.415a.499.499 0 01.593.49v8.672a.501.501 0 01-.486.5c-2.867.077-4.822.117-8.481.192l-.521.011c-.005.002-.009.002-.012.002zM10.5 20.757a.437.437 0 01-.072-.006 482.167 482.167 0 00-2.898-.409c-2.187-.303-4.074-.564-6.122-.956a.499.499 0 01-.406-.491v-5.908a.498.498 0 01.514-.5c2.012.056 3.848.093 6.011.135l2.985.061c.272.006.49.229.49.5v7.077a.494.494 0 01-.502.497z"/>
</svg>
