<!--?xml version="1.0" encoding="utf-8"?-->
<!-- Generator: Adobe Illustrator 19.0.0, SVG Export Plug-In . SVG Version: 6.00 Build 0)  -->
<svg version="1.1" id="Layer_1" xmlns="http://www.w3.org/2000/svg" xmlns:xlink="http://www.w3.org/1999/xlink" x="0px" y="0px" width="1569.8px" height="719.6px" viewBox="0 0 1569.8 719.6" style="" xml:space="preserve" class="">
<style type="text/css">
	.st0{opacity:0.29;}
	.st1{clip-path:url(#SVGID_2_);}
	.st2{clip-path:url(#SVGID_4_);fill:none;stroke:#FFFFFF;stroke-width:2.584;stroke-miterlimit:10;}
	.st3{opacity:0.6;clip-path:url(#SVGID_2_);}
	.st4{clip-path:url(#SVGID_6_);fill:none;stroke:#FFFFFF;stroke-width:2.584;stroke-miterlimit:10;}
	.st5{opacity:0.5;clip-path:url(#SVGID_2_);}
	.st6{clip-path:url(#SVGID_8_);fill:none;stroke:#FFFFFF;stroke-width:2.584;stroke-miterlimit:10;}
	.st7{opacity:0.3;clip-path:url(#SVGID_2_);}
	.st8{clip-path:url(#SVGID_10_);fill:none;stroke:#FFFFFF;stroke-width:2.584;stroke-miterlimit:10;}
	.st9{opacity:0.1;clip-path:url(#SVGID_2_);}
	.st10{clip-path:url(#SVGID_12_);fill:none;stroke:#FFFFFF;stroke-width:2.584;stroke-miterlimit:10;}
</style>
<g class="st0">
	<g>
		<defs>
			<path id="SVGID_1_" width="1559.1" height="719.6" d="M0 0 L1559.1 0 L1559.1 719.6 L0 719.6 Z" class="LwQcwxZR_0"></path>
		</defs>
		<clipPath id="SVGID_2_">
			<use xlink:href="#SVGID_1_" style="overflow:visible;"></use>
		</clipPath>
		<g class="st1">
			<g>
				<defs>
					<path id="SVGID_3_" width="1468.6" height="629.1" d="M0 0 L1468.6 0 L1468.6 629.1 L0 629.1 Z" class="LwQcwxZR_1"></path>
				</defs>
				<clipPath id="SVGID_4_">
					<use xlink:href="#SVGID_3_" style="overflow:visible;"></use>
				</clipPath>
				<path class="st2 LwQcwxZR_2" d="M430.4,615L1.3,615L1.3,470.8L237.3,156.7L1.3,156.7L1.3,14.2L430.4,14.2L430.4,156.7L194.4,470.8L
					430.4,470.8Z"></path>
				<path class="st2 LwQcwxZR_3" d="M634.5,627.8c-89,0-164.9-30.6-227.6-91.8c-62.8-61.2-94.2-135-94.2-221.4c0-86.4,31.4-160.2,94.2-221.4
					C469.7,31.9,545.5,1.3,634.5,1.3c89,0,164.8,30.6,227.6,91.8c62.8,61.2,94.2,135,94.2,221.4c0,86.4-31.4,160.2-94.2,221.4
					C799.4,597.2,723.5,627.8,634.5,627.8z M482.6,312v1.7c0,55.8,24,101,72.1,135.6c23.7,14.9,48.3,22.3,73.8,22.3h13.7
					c62.7,0,108.4-35.5,137.3-106.4c4.6-18.9,6.9-35.5,6.9-49.8v-8.6c0-60.4-29.2-107.3-87.5-140.7c-21.2-10.3-43.5-15.4-66.9-15.4
					c-59.5,0-104.1,29.2-133.9,87.5C487.8,258.5,482.6,283.1,482.6,312z"></path>
				<path class="st2 LwQcwxZR_4" d="M1145.5,627.8c-89,0-164.9-30.6-227.6-91.8c-62.8-61.2-94.2-135-94.2-221.4c0-86.4,31.4-160.2,94.2-221.4
					c62.8-61.2,138.7-91.8,227.6-91.8c89,0,164.8,30.6,227.6,91.8c62.8,61.2,94.2,135,94.2,221.4c0,86.4-31.4,160.2-94.2,221.4
					C1310.4,597.2,1234.5,627.8,1145.5,627.8z M993.6,312v1.7c0,55.8,24,101,72.1,135.6c23.7,14.9,48.3,22.3,73.8,22.3h13.7
					c62.6,0,108.4-35.5,137.3-106.4c4.6-18.9,6.9-35.5,6.9-49.8v-8.6c0-60.4-29.2-107.3-87.5-140.7c-21.2-10.3-43.5-15.4-66.9-15.4
					c-59.5,0-104.1,29.2-133.9,87.5C998.8,258.5,993.6,283.1,993.6,312z"></path>
			</g>
		</g>
		<g class="st3">
			<g>
				<defs>
					<path id="SVGID_5_" width="1468.6" height="629" d="M22.6 22.7 L1491.1999999999998 22.7 L1491.1999999999998 651.7 L22.6 651.7 Z" class="LwQcwxZR_5"></path>
				</defs>
				<clipPath id="SVGID_6_">
					<use xlink:href="#SVGID_5_" style="overflow:visible;"></use>
				</clipPath>
				<path class="st4 LwQcwxZR_6" d="M453,637.6L23.9,637.6L23.9,493.4L259.9,179.3L23.9,179.3L23.9,36.8L453,36.8L453,179.3L217,493.4L
					453,493.4Z"></path>
				<path class="st4 LwQcwxZR_7" d="M657.1,650.4c-89,0-164.9-30.6-227.6-91.8c-62.8-61.2-94.2-135-94.2-221.4c0-86.4,31.4-160.2,94.2-221.4
					c62.8-61.2,138.7-91.8,227.6-91.8c89,0,164.8,30.6,227.6,91.8c62.8,61.2,94.2,135,94.2,221.4c0,86.4-31.4,160.2-94.2,221.4
					C822,619.8,746.1,650.4,657.1,650.4z M505.2,334.6v1.7c0,55.8,24,101,72.1,135.6c23.7,14.9,48.3,22.3,73.8,22.3h13.7
					c62.7,0,108.4-35.5,137.3-106.4c4.6-18.9,6.9-35.5,6.9-49.8v-8.6c0-60.4-29.2-107.3-87.5-140.7c-21.2-10.3-43.5-15.4-66.9-15.4
					c-59.5,0-104.1,29.2-133.9,87.5C510.4,281.1,505.2,305.7,505.2,334.6z"></path>
				<path class="st4 LwQcwxZR_8" d="M1168.1,650.4c-89,0-164.9-30.6-227.6-91.8c-62.8-61.2-94.2-135-94.2-221.4c0-86.4,31.4-160.2,94.2-221.4
					c62.8-61.2,138.7-91.8,227.6-91.8c89,0,164.8,30.6,227.6,91.8c62.8,61.2,94.2,135,94.2,221.4c0,86.4-31.4,160.2-94.2,221.4
					C1333,619.8,1257.1,650.4,1168.1,650.4z M1016.2,334.6v1.7c0,55.8,24,101,72.1,135.6c23.7,14.9,48.3,22.3,73.8,22.3h13.7
					c62.7,0,108.4-35.5,137.3-106.4c4.6-18.9,6.9-35.5,6.9-49.8v-8.6c0-60.4-29.2-107.3-87.5-140.7c-21.2-10.3-43.5-15.4-66.9-15.4
					c-59.5,0-104.1,29.2-133.9,87.5C1021.4,281.1,1016.2,305.7,1016.2,334.6z"></path>
			</g>
		</g>
		<g class="st5">
			<g>
				<defs>
					<path id="SVGID_7_" width="1468.6" height="629" d="M45.2 45.3 L1513.8 45.3 L1513.8 674.3 L45.2 674.3 Z" class="LwQcwxZR_9"></path>
				</defs>
				<clipPath id="SVGID_8_">
					<use xlink:href="#SVGID_7_" style="overflow:visible;"></use>
				</clipPath>
				<path class="st6 LwQcwxZR_10" d="M475.6,660.2L46.5,660.2L46.5,516L282.5,201.9L46.5,201.9L46.5,59.4L475.6,59.4L475.6,201.9L
					239.6,516L475.6,516Z"></path>
				<path class="st6 LwQcwxZR_11" d="M679.7,673.1c-89,0-164.9-30.6-227.6-91.8c-62.8-61.2-94.2-135-94.2-221.4c0-86.4,31.4-160.2,94.2-221.4
					c62.8-61.2,138.7-91.8,227.6-91.8c89,0,164.8,30.6,227.6,91.8c62.8,61.2,94.2,135,94.2,221.4c0,86.4-31.4,160.2-94.2,221.4
					C844.6,642.4,768.7,673.1,679.7,673.1z M527.8,357.2v1.7c0,55.8,24,101,72.1,135.6c23.7,14.9,48.3,22.3,73.8,22.3h13.7
					c62.7,0,108.4-35.5,137.3-106.4c4.6-18.9,6.9-35.5,6.9-49.8v-8.6c0-60.4-29.2-107.3-87.5-140.7c-21.2-10.3-43.5-15.4-66.9-15.4
					c-59.5,0-104.1,29.2-133.9,87.5C533,303.7,527.8,328.3,527.8,357.2z"></path>
				<path class="st6 LwQcwxZR_12" d="M1190.7,673.1c-89,0-164.9-30.6-227.6-91.8c-62.8-61.2-94.2-135-94.2-221.4c0-86.4,31.4-160.2,94.2-221.4
					c62.8-61.2,138.7-91.8,227.6-91.8c89,0,164.8,30.6,227.6,91.8c62.8,61.2,94.2,135,94.2,221.4c0,86.4-31.4,160.2-94.2,221.4
					C1355.6,642.4,1279.7,673.1,1190.7,673.1z M1038.8,357.2v1.7c0,55.8,24,101,72.1,135.6c23.7,14.9,48.3,22.3,73.8,22.3h13.7
					c62.7,0,108.4-35.5,137.3-106.4c4.6-18.9,6.9-35.5,6.9-49.8v-8.6c0-60.4-29.2-107.3-87.5-140.7c-21.2-10.3-43.5-15.4-66.9-15.4
					c-59.5,0-104.1,29.2-133.9,87.5C1044,303.7,1038.8,328.3,1038.8,357.2z"></path>
			</g>
		</g>
		<g class="st7">
			<g>
				<defs>
					<path id="SVGID_9_" width="1468.6" height="629.1" d="M67.8 67.9 L1536.3999999999999 67.9 L1536.3999999999999 697 L67.8 697 Z" class="LwQcwxZR_13"></path>
				</defs>
				<clipPath id="SVGID_10_">
					<use xlink:href="#SVGID_9_" style="overflow:visible;"></use>
				</clipPath>
				<path class="st8 LwQcwxZR_14" d="M498.2,682.8L69.1,682.8L69.1,538.6L305.1,224.5L69.1,224.5L69.1,82L498.2,82L498.2,224.5L
					262.2,538.6L498.2,538.6Z"></path>
				<path class="st8 LwQcwxZR_15" d="M702.4,695.7c-89,0-164.9-30.6-227.6-91.8c-62.8-61.2-94.2-135-94.2-221.4c0-86.4,31.4-160.2,94.2-221.4
					c62.8-61.2,138.7-91.8,227.6-91.8c89,0,164.8,30.6,227.6,91.8c62.8,61.2,94.2,135,94.2,221.4c0,86.4-31.4,160.2-94.2,221.4
					C867.2,665.1,791.3,695.7,702.4,695.7z M550.4,379.8v1.7c0,55.8,24,101,72.1,135.6c23.7,14.9,48.3,22.3,73.8,22.3h13.7
					c62.7,0,108.4-35.5,137.3-106.4c4.6-18.9,6.9-35.5,6.9-49.8v-8.6c0-60.4-29.2-107.3-87.5-140.7c-21.2-10.3-43.5-15.4-66.9-15.4
					c-59.5,0-104.1,29.2-133.9,87.5C555.6,326.3,550.4,350.9,550.4,379.8z"></path>
				<path class="st8 LwQcwxZR_16" d="M1213.3,695.7c-89,0-164.9-30.6-227.6-91.8c-62.8-61.2-94.2-135-94.2-221.4c0-86.4,31.4-160.2,94.2-221.4
					c62.8-61.2,138.7-91.8,227.6-91.8c89,0,164.8,30.6,227.6,91.8c62.8,61.2,94.2,135,94.2,221.4c0,86.4-31.4,160.2-94.2,221.4
					C1378.2,665.1,1302.3,695.7,1213.3,695.7z M1061.4,379.8v1.7c0,55.8,24,101,72.1,135.6c23.7,14.9,48.3,22.3,73.8,22.3h13.7
					c62.7,0,108.4-35.5,137.3-106.4c4.6-18.9,6.9-35.5,6.9-49.8v-8.6c0-60.4-29.2-107.3-87.5-140.7c-21.2-10.3-43.5-15.4-66.9-15.4
					c-59.5,0-104.1,29.2-133.9,87.5C1066.6,326.3,1061.4,350.9,1061.4,379.8z"></path>
			</g>
		</g>
		<g class="st9">
			<g>
				<defs>
					<path id="SVGID_11_" width="1468.6" height="629.1" d="M90.4 90.5 L1559 90.5 L1559 719.6 L90.4 719.6 Z" class="LwQcwxZR_17"></path>
				</defs>
				<clipPath id="SVGID_12_">
					<use xlink:href="#SVGID_11_" style="overflow:visible;"></use>
				</clipPath>
				<path class="st10 LwQcwxZR_18" d="M520.8,705.4L91.7,705.4L91.7,561.2L327.7,247.1L91.7,247.1L91.7,104.6L520.8,104.6L520.8,247.1L
					284.8,561.2L520.8,561.2Z"></path>
				<path class="st10 LwQcwxZR_19" d="M725,718.3c-89,0-164.9-30.6-227.6-91.8c-62.8-61.2-94.2-135-94.2-221.4c0-86.4,31.4-160.2,94.2-221.4
					C560.1,122.4,636,91.8,725,91.8c89,0,164.8,30.6,227.6,91.8c62.8,61.2,94.2,135,94.2,221.4c0,86.4-31.4,160.2-94.2,221.4
					C889.8,687.7,813.9,718.3,725,718.3z M573.1,402.4v1.7c0,55.8,24,101,72.1,135.6c23.7,14.9,48.3,22.3,73.8,22.3h13.7
					c62.7,0,108.4-35.5,137.3-106.4c4.6-18.9,6.9-35.5,6.9-49.8v-8.6c0-60.4-29.2-107.3-87.5-140.7c-21.2-10.3-43.5-15.4-66.9-15.4
					c-59.5,0-104.1,29.2-133.9,87.5C578.2,349,573.1,373.6,573.1,402.4z"></path>
				<path class="st10 LwQcwxZR_20" d="M1236,718.3c-89,0-164.9-30.6-227.6-91.8c-62.8-61.2-94.2-135-94.2-221.4c0-86.4,31.4-160.2,94.2-221.4
					c62.8-61.2,138.7-91.8,227.6-91.8c89,0,164.8,30.6,227.6,91.8c62.8,61.2,94.2,135,94.2,221.4c0,86.4-31.4,160.2-94.2,221.4
					C1400.8,687.7,1324.9,718.3,1236,718.3z M1084.1,402.4v1.7c0,55.8,24,101,72.1,135.6c23.7,14.9,48.3,22.3,73.8,22.3h13.7
					c62.7,0,108.4-35.5,137.3-106.4c4.6-18.9,6.9-35.5,6.9-49.8v-8.6c0-60.4-29.2-107.3-87.5-140.7c-21.2-10.3-43.5-15.4-66.9-15.4
					c-59.5,0-104.1,29.2-133.9,87.5C1089.2,349,1084.1,373.6,1084.1,402.4z"></path>
			</g>
		</g>
	</g>
</g>
<g id="XMLID_27_">
</g>
<g id="XMLID_28_">
</g>
<g id="XMLID_29_">
</g>
<g id="XMLID_30_">
</g>
<g id="XMLID_31_">
</g>
<g id="XMLID_32_">
</g>
<g id="XMLID_33_">
</g>
<g id="XMLID_34_">
</g>
<g id="XMLID_35_">
</g>
<g id="XMLID_36_">
</g>
<g id="XMLID_37_">
</g>
<g id="XMLID_38_">
</g>
<g id="XMLID_39_">
</g>
<g id="XMLID_40_">
</g>
<g id="XMLID_41_">
</g>
<style data-made-with="vivus-instant">.LwQcwxZR_0{stroke-dasharray:4558 4560;stroke-dashoffset:4559;animation:LwQcwxZR_draw 3000ms ease-in 0ms reverse;}.LwQcwxZR_1{stroke-dasharray:4196 4198;stroke-dashoffset:4197;animation:LwQcwxZR_draw 3000ms ease-in 150ms reverse;}.LwQcwxZR_2{stroke-dasharray:2690 2692;stroke-dashoffset:2691;animation:LwQcwxZR_draw 3000ms ease-in 300ms reverse;}.LwQcwxZR_3{stroke-dasharray:2987 2989;stroke-dashoffset:2988;animation:LwQcwxZR_draw 3000ms ease-in 450ms reverse;}.LwQcwxZR_4{stroke-dasharray:2986 2988;stroke-dashoffset:2987;animation:LwQcwxZR_draw 3000ms ease-in 600ms reverse;}.LwQcwxZR_5{stroke-dasharray:4196 4198;stroke-dashoffset:4197;animation:LwQcwxZR_draw 3000ms ease-in 750ms reverse;}.LwQcwxZR_6{stroke-dasharray:2690 2692;stroke-dashoffset:2691;animation:LwQcwxZR_draw 3000ms ease-in 900ms reverse;}.LwQcwxZR_7{stroke-dasharray:2987 2989;stroke-dashoffset:2988;animation:LwQcwxZR_draw 3000ms ease-in 1050ms reverse;}.LwQcwxZR_8{stroke-dasharray:2987 2989;stroke-dashoffset:2988;animation:LwQcwxZR_draw 3000ms ease-in 1200ms reverse;}.LwQcwxZR_9{stroke-dasharray:4196 4198;stroke-dashoffset:4197;animation:LwQcwxZR_draw 3000ms ease-in 1350ms reverse;}.LwQcwxZR_10{stroke-dasharray:2690 2692;stroke-dashoffset:2691;animation:LwQcwxZR_draw 3000ms ease-in 1500ms reverse;}.LwQcwxZR_11{stroke-dasharray:2986 2988;stroke-dashoffset:2987;animation:LwQcwxZR_draw 3000ms ease-in 1650ms reverse;}.LwQcwxZR_12{stroke-dasharray:2986 2988;stroke-dashoffset:2987;animation:LwQcwxZR_draw 3000ms ease-in 1800ms reverse;}.LwQcwxZR_13{stroke-dasharray:4196 4198;stroke-dashoffset:4197;animation:LwQcwxZR_draw 3000ms ease-in 1950ms reverse;}.LwQcwxZR_14{stroke-dasharray:2690 2692;stroke-dashoffset:2691;animation:LwQcwxZR_draw 3000ms ease-in 2100ms reverse;}.LwQcwxZR_15{stroke-dasharray:2986 2988;stroke-dashoffset:2987;animation:LwQcwxZR_draw 3000ms ease-in 2250ms reverse;}.LwQcwxZR_16{stroke-dasharray:2987 2989;stroke-dashoffset:2988;animation:LwQcwxZR_draw 3000ms ease-in 2400ms reverse;}.LwQcwxZR_17{stroke-dasharray:4196 4198;stroke-dashoffset:4197;animation:LwQcwxZR_draw 3000ms ease-in 2550ms reverse;}.LwQcwxZR_18{stroke-dasharray:2690 2692;stroke-dashoffset:2691;animation:LwQcwxZR_draw 3000ms ease-in 2700ms reverse;}.LwQcwxZR_19{stroke-dasharray:2987 2989;stroke-dashoffset:2988;animation:LwQcwxZR_draw 3000ms ease-in 2850ms reverse;}.LwQcwxZR_20{stroke-dasharray:2986 2988;stroke-dashoffset:2987;animation:LwQcwxZR_draw 3000ms ease-in 3000ms reverse;}@keyframes LwQcwxZR_draw{100%{stroke-dashoffset:0;}}@keyframes LwQcwxZR_fade{0%{stroke-opacity:1;}94.44444444444444%{stroke-opacity:1;}100%{stroke-opacity:0;}}</style></svg>
