<?xml version="1.0" encoding="utf-8"?>
<!-- Generator: Adobe Illustrator 26.0.0, SVG Export Plug-In . SVG Version: 6.00 Build 0)  -->
<svg version="1.1" id="Layer_1" xmlns="http://www.w3.org/2000/svg" xmlns:xlink="http://www.w3.org/1999/xlink" x="0px" y="0px"
	 viewBox="0 0 135 150" style="enable-background:new 0 0 135 150;" xml:space="preserve">
<style type="text/css">
	.st0{fill:#F9BB32;}
	.st1{fill:#00A59A;}
</style>
<g>
	<path class="st0" d="M135,59.7C135,34.9,125.6,0,114.1,0c-4.7,0-9.1,17.6-12.6,23.9c-0.2-0.1-0.4-0.3-0.6-0.4
		c-8.8-5-18.8-8.1-29.4-8.6c4.4,8.1,7,17.5,7,27.4c0,20.5-10.8,38.5-27,48.5c0,0.1,0,0.2,0,0.3c0,7-2.1,12.6-4.8,12.6
		c-2.1,0-3.8-3.5-4.5-8.3c-3.4,1.3-7,2.4-10.6,3c-3.3,0.6-6.7,0.9-10.1,0.9c-3.8,0-7.5-0.4-11.1-1.1c-2.7-0.5-5.4-1.3-7.9-2.2
		C8.5,126.9,35.6,150,67.9,150c37,0,67.1-30.3,67.1-67.6c0-3.5-0.3-7-0.8-10.4C134.7,68.1,135,64,135,59.7z M87.5,103.8
		c-2.6,0-4.8-5.7-4.8-12.6s2.1-12.6,4.8-12.6c2.6,0,4.8,5.7,4.8,12.6S90.2,103.8,87.5,103.8z"/>
	<path class="st1" d="M71.4,14.9c-1.2-0.1-2.3-0.1-3.5-0.1c-12.5,0-24.2,3.5-34.2,9.5C30.2,18.4,25.7,0,20.9,0C9.4,0,0,34.9,0,59.7
		c0,5.4,0.4,10.6,1.3,15.4C1,77.5,0.9,80,0.9,82.4c0,4.7,0.5,9.3,1.4,13.7c2.6,0.9,5.2,1.7,7.9,2.2c3.6,0.7,7.3,1.1,11.1,1.1
		c3.5,0,6.8-0.3,10.1-0.9c3.7-0.7,7.2-1.7,10.6-3c-0.2-1.4-0.3-2.8-0.3-4.4c0-7,2.1-12.6,4.8-12.6c2.6,0,4.7,5.5,4.8,12.3
		c16.2-10.1,27-28,27-48.5C78.4,32.4,75.9,23,71.4,14.9z"/>
</g>
</svg>
