<svg id="Layer_1" data-name="Layer 1" xmlns="http://www.w3.org/2000/svg" viewBox="0 0 287.13 108.61"><defs><style>.cls-1{fill:#fff;}</style></defs><path class="cls-1" d="M178.23,0H167l-28.5,40.8h27.64v7.75h12.1a14.53,14.53,0,0,0,14.49-14.49V14.49A14.53,14.53,0,0,0,178.23,0ZM165.91,27.66a3.27,3.27,0,1,1,3.26-3.26A3.26,3.26,0,0,1,165.91,27.66Zm6.89,6.88a3.26,3.26,0,1,1,3.26-3.26A3.26,3.26,0,0,1,172.8,34.54Zm0-13.77a3.26,3.26,0,1,1,3.26-3.26A3.26,3.26,0,0,1,172.8,20.77Zm6.88,6.89a3.27,3.27,0,1,1,3.26-3.26A3.26,3.26,0,0,1,179.68,27.66Z" transform="translate(0)"/><path class="cls-1" d="M122,7.68V0H108.67a14.54,14.54,0,0,0-14.5,14.49V34.06a14.54,14.54,0,0,0,14.5,14.49H120L148.48,7.68Zm-1,19.74h-2.89a1.44,1.44,0,0,0-1.45,1.44v2.9a1.45,1.45,0,0,1-1.45,1.45h-3.63a1.44,1.44,0,0,1-1.44-1.45v-2.9a1.44,1.44,0,0,0-1.45-1.44h-2.9A1.45,1.45,0,0,1,104.32,26V22.34a1.45,1.45,0,0,1,1.45-1.45h2.9a1.45,1.45,0,0,0,1.45-1.45V16.55a1.44,1.44,0,0,1,1.44-1.45h3.63a1.45,1.45,0,0,1,1.45,1.45v2.89a1.45,1.45,0,0,0,1.45,1.45H121a1.44,1.44,0,0,1,1.45,1.45V26A1.44,1.44,0,0,1,121,27.42Z" transform="translate(0)"/><path class="cls-1" d="M26.21,107.57H0V98.76L14.42,79.57H0v-8.7H26.21v8.7L11.79,98.76H26.21Z" transform="translate(0)"/><path class="cls-1" d="M45.11,108.09a19.2,19.2,0,0,1-13.91-5.61,18.78,18.78,0,0,1,0-27,19.2,19.2,0,0,1,13.91-5.61A19.18,19.18,0,0,1,59,75.43a18.76,18.76,0,0,1,0,27.05A19.18,19.18,0,0,1,45.11,108.09ZM35.83,88.8v.1a9.79,9.79,0,0,0,4.4,8.29,8.38,8.38,0,0,0,4.51,1.36h.84q5.74,0,8.39-6.5a13.1,13.1,0,0,0,.42-3v-.53q0-5.52-5.35-8.59a9.23,9.23,0,0,0-4.09-1q-5.45,0-8.18,5.35A9.86,9.86,0,0,0,35.83,88.8Z" transform="translate(0)"/><path class="cls-1" d="M86,108.09a19.18,19.18,0,0,1-13.9-5.61,18.76,18.76,0,0,1,0-27,20,20,0,0,1,27.81,0,18.78,18.78,0,0,1,0,27.05A19.2,19.2,0,0,1,86,108.09ZM76.74,88.8v.1a9.78,9.78,0,0,0,4.41,8.29,8.35,8.35,0,0,0,4.5,1.36h.84q5.74,0,8.39-6.5a13.1,13.1,0,0,0,.42-3v-.53Q95.3,83,90,79.89a9.2,9.2,0,0,0-4.09-1q-5.44,0-8.17,5.35A9.86,9.86,0,0,0,76.74,88.8Z" transform="translate(0)"/><path class="cls-1" d="M125.63,70.24q10.25,0,15.46,6.08L134,82.61a7.61,7.61,0,0,0-2.62-2.41,11,11,0,0,0-4.61-.84q-5.3,0-8.28,5.77a10.69,10.69,0,0,0-.84,4.09,9.81,9.81,0,0,0,6.08,9.64,9.48,9.48,0,0,0,3.25.63h1.15c3.5-.33,5.24-1,5.24-2V93.94h-7.23V86.28H144v21.39h-7.86v-1.15a26.24,26.24,0,0,1-7.55,1.78c-.89.14-1.83.24-2.83.31a17.82,17.82,0,0,1-12-4.29,21.12,21.12,0,0,1-6.5-15.1q0-7.95,6.39-14.57A17.43,17.43,0,0,1,125.63,70.24Z" transform="translate(0)"/><path class="cls-1" d="M157.47,102.32l-1.94,5.25H144.42l14.68-36.7h9.43l14.68,36.7H172.1l-1.86-5.25Zm10-7.86L164,84.71l-3.62,9.75Z" transform="translate(0)"/><path class="cls-1" d="M183.81,71h15.73q.28,0,3,12,.53,1.65,2.3,9.44h.21L210.23,71h16v36.59H215.68V84.19c-.17,0-.77,2.09-1.78,6.29q-.21.54-4.72,17.09H200.9c-.16,0-.78-2.21-1.89-6.61L194.4,84.19h-.1v23.38H183.6V71.19Q183.63,71,183.81,71Z" transform="translate(0)"/><path class="cls-1" d="M254.92,70.87v8.7H238.77v5.56h14.79V93H238.77v5.77h16.15v8.81H228.71V70.87Z" transform="translate(0)"/><path class="cls-1" d="M271.3,70q7.65,0,11.64,4.35a11.63,11.63,0,0,1,2.93,7.5h-9.33a3.61,3.61,0,0,0-1.32-2.44,6.8,6.8,0,0,0-3.92-.81q-4.5,0-5,2s0,.17-.11.42c0,1.55,1.86,2.67,5.56,3.35,5.14,1.23,8.53,2.41,10.17,3.57a9.41,9.41,0,0,1,5.24,8.7q0,7.47-8,10.59a22.83,22.83,0,0,1-7.33,1.15,18.44,18.44,0,0,1-10.49-2.93q-4.06-3-4.87-6.5a14.31,14.31,0,0,1-.42-3.67h8.8c.7,1.81,1.49,3,2.38,3.46a8.39,8.39,0,0,0,4,.73h1.26q4.76-.34,4.76-2.52,0-2.49-7.81-3.67-6.75-1.56-9.43-3.35a9.34,9.34,0,0,1-4-8q0-7.47,7.55-10.59A24.19,24.19,0,0,1,271.3,70Z" transform="translate(0)"/></svg>